<svg xmlns="http://www.w3.org/2000/svg" viewBox="0 0 335 98" width="335" height="98" fill="none">
  <defs>
    <linearGradient id="brandGrad" x1="0%" y1="0%" x2="100%" y2="100%">
      <stop offset="0%" stop-color="#1E56DB" />
      <stop offset="100%" stop-color="#10B981" />
    </linearGradient>
  </defs>
  <path d="M14.26 0L4.75 0L4.75-50.40L14.26-50.40L14.26-29.59L32.98-29.59L32.98-50.40L42.48-50.40L42.48 0L32.98 0L32.98-20.95L14.26-20.95L14.26 0M76.82 14.40L54.36 14.40L54.36 6.48L73.80 6.48Q75.82 6.48 75.82 4.32L75.82-4.68L74.52-4.68Q73.94-3.46 72.72-2.23Q71.50-1.01 69.41-0.22Q67.32 0.58 64.08 0.58Q59.90 0.58 56.77-1.33Q53.64-3.24 51.91-6.62Q50.18-10.01 50.18-14.40L50.18-35.71L59.26-35.71L59.26-15.12Q59.26-11.09 61.24-9.07Q63.22-7.06 66.89-7.06Q71.06-7.06 73.37-9.83Q75.67-12.60 75.67-17.57L75.67-35.71L84.74-35.71L84.74 6.34Q84.74 10.01 82.58 12.20Q80.42 14.40 76.82 14.40M102.10 0L93.02 0L93.02-50.40L102.10-50.40L102.10 0M123.98 0.58Q119.81 0.58 116.68-1.33Q113.54-3.24 111.82-6.62Q110.09-10.01 110.09-14.40L110.09-35.71L119.16-35.71L119.16-15.12Q119.16-11.09 121.14-9.07Q123.12-7.06 126.79-7.06Q130.97-7.06 133.27-9.83Q135.58-12.60 135.58-17.57L135.58-35.71L144.65-35.71L144.65 0L135.72 0L135.72-4.68L134.42-4.68Q133.56-2.88 131.18-1.15Q128.81 0.58 123.98 0.58M162 0L152.93 0L152.93-35.71L161.86-35.71L161.86-31.03L163.15-31.03Q164.02-32.90 166.39-34.60Q168.77-36.29 173.59-36.29Q177.77-36.29 180.90-34.38Q184.03-32.47 185.76-29.12Q187.49-25.78 187.49-21.31L187.49 0L178.42 0L178.42-20.59Q178.42-24.62 176.44-26.64Q174.46-28.66 170.78-28.66Q166.61-28.66 164.30-25.88Q162-23.11 162-18.14L162 0M204.55 0L195.48 0L195.48-35.71L204.55-35.71L204.55 0M200.02-39.89Q197.57-39.89 195.88-41.47Q194.18-43.06 194.18-45.65Q194.18-48.24 195.88-49.82Q197.57-51.41 200.02-51.41Q202.54-51.41 204.19-49.82Q205.85-48.24 205.85-45.65Q205.85-43.06 204.19-41.47Q202.54-39.89 200.02-39.89M223.92 1.01Q220.10 1.01 217.08-0.32Q214.06-1.66 212.29-4.21Q210.53-6.77 210.53-10.44Q210.53-14.11 212.29-16.60Q214.06-19.08 217.19-20.34Q220.32-21.60 224.35-21.60L234.14-21.60L234.14-23.62Q234.14-26.14 232.56-27.76Q230.98-29.38 227.52-29.38Q224.14-29.38 222.48-27.83Q220.82-26.28 220.32-23.83L211.97-26.64Q212.83-29.38 214.74-31.64Q216.65-33.91 219.85-35.32Q223.06-36.72 227.66-36.72Q234.72-36.72 238.82-33.19Q242.93-29.66 242.93-22.97L242.93-9.65Q242.93-7.49 244.94-7.49L247.82-7.49L247.82 0L241.78 0Q239.11 0 237.38-1.30Q235.66-2.59 235.66-4.75L235.66-4.82L234.29-4.82Q234-3.96 232.99-2.56Q231.98-1.15 229.82-0.07Q227.66 1.01 223.92 1.01M225.50-6.34Q229.32-6.34 231.73-8.46Q234.14-10.58 234.14-14.11L234.14-14.83L225-14.83Q222.48-14.83 221.04-13.75Q219.60-12.67 219.60-10.73Q219.60-8.78 221.11-7.56Q222.62-6.34 225.50-6.34M261.72 0L252.65 0L252.65-35.71L261.58-35.71L261.58-31.03L262.87-31.03Q263.74-32.90 266.11-34.60Q268.49-36.29 273.31-36.29Q277.49-36.29 280.62-34.38Q283.75-32.47 285.48-29.12Q287.21-25.78 287.21-21.31L287.21 0L278.14 0L278.14-20.59Q278.14-24.62 276.16-26.64Q274.18-28.66 270.50-28.66Q266.33-28.66 264.02-25.88Q261.72-23.11 261.72-18.14L261.72 0M300.96 1.01Q298.01 1.01 296.03-0.90Q294.05-2.81 294.05-5.83Q294.05-8.86 296.03-10.76Q298.01-12.67 300.96-12.67Q303.84-12.67 305.78-10.76Q307.73-8.86 307.73-5.83Q307.73-2.81 305.78-0.90Q303.84 1.01 300.96 1.01" transform="translate(11.25, 67.41)" fill="url(#brandGrad)" />
</svg>
