<svg viewBox="0 0 160 160" xmlns="http://www.w3.org/2000/svg">
  <defs>
    <linearGradient id="grad" x1="0" y1="0" x2="1" y2="1">
      <stop offset="0%" stop-color="#B07BFF" />
      <stop offset="50%" stop-color="#7C5CFF" />
      <stop offset="100%" stop-color="#3D7CFF" />
    </linearGradient>
  </defs>
  <g id="pixels" fill="url(#grad)">
      <rect x="0" y="0" width="20" height="20" rx="2" />
      <rect x="20" y="0" width="20" height="20" rx="2" />
      <rect x="40" y="0" width="20" height="20" rx="2" />
      <rect x="60" y="0" width="20" height="20" rx="2" />
      <rect x="80" y="0" width="20" height="20" rx="2" />
      <rect x="100" y="0" width="20" height="20" rx="2" />
      <rect x="120" y="0" width="20" height="20" rx="2" />
      <rect x="140" y="0" width="20" height="20" rx="2" />
      <rect x="0" y="20" width="20" height="20" rx="2" />
      <rect x="20" y="20" width="20" height="20" rx="2" />
      <rect x="40" y="20" width="20" height="20" rx="2" />
      <rect x="60" y="20" width="20" height="20" rx="2" />
      <rect x="80" y="20" width="20" height="20" rx="2" />
      <rect x="100" y="20" width="20" height="20" rx="2" />
      <rect x="120" y="20" width="20" height="20" rx="2" />
      <rect x="140" y="20" width="20" height="20" rx="2" />
      <rect x="0" y="40" width="20" height="20" rx="2" />
      <rect x="20" y="40" width="20" height="20" rx="2" />
      <rect x="40" y="40" width="20" height="20" rx="2" />
      <rect x="60" y="40" width="20" height="20" rx="2" />
      <rect x="80" y="40" width="20" height="20" rx="2" />
      <rect x="100" y="40" width="20" height="20" rx="2" />
      <rect x="120" y="40" width="20" height="20" rx="2" />
      <rect x="140" y="40" width="20" height="20" rx="2" />
      <rect x="0" y="60" width="20" height="20" rx="2" />
      <rect x="20" y="60" width="20" height="20" rx="2" />
      <rect x="40" y="60" width="20" height="20" rx="2" />
      <rect x="60" y="60" width="20" height="20" rx="2" />
      <rect x="80" y="60" width="20" height="20" rx="2" />
      <rect x="100" y="60" width="20" height="20" rx="2" />
      <rect x="120" y="60" width="20" height="20" rx="2" />
      <rect x="140" y="60" width="20" height="20" rx="2" />
      <rect x="0" y="80" width="20" height="20" rx="2" />
      <rect x="20" y="80" width="20" height="20" rx="2" />
      <rect x="40" y="80" width="20" height="20" rx="2" />
      <rect x="60" y="80" width="20" height="20" rx="2" />
      <rect x="80" y="80" width="20" height="20" rx="2" />
      <rect x="100" y="80" width="20" height="20" rx="2" />
      <rect x="120" y="80" width="20" height="20" rx="2" />
      <rect x="0" y="100" width="20" height="20" rx="2" />
      <rect x="20" y="100" width="20" height="20" rx="2" />
      <rect x="40" y="100" width="20" height="20" rx="2" />
      <rect x="60" y="100" width="20" height="20" rx="2" />
      <rect x="80" y="100" width="20" height="20" rx="2" />
      <rect x="100" y="100" width="20" height="20" rx="2" />
      <rect x="140" y="100" width="20" height="20" rx="2" />
      <rect x="0" y="120" width="20" height="20" rx="2" />
      <rect x="20" y="120" width="20" height="20" rx="2" />
      <rect x="40" y="120" width="20" height="20" rx="2" />
      <rect x="60" y="120" width="20" height="20" rx="2" />
      <rect x="80" y="120" width="20" height="20" rx="2" />
      <rect x="120" y="120" width="20" height="20" rx="2" />
      <rect x="0" y="140" width="20" height="20" rx="2" />
      <rect x="20" y="140" width="20" height="20" rx="2" />
      <rect x="40" y="140" width="20" height="20" rx="2" />
      <rect x="60" y="140" width="20" height="20" rx="2" />
      <rect x="100" y="140" width="20" height="20" rx="2" />
      <rect x="140" y="140" width="20" height="20" rx="2" />
  </g>
</svg>